General
Unique ID                                : 159225308884282601290196360025842948889 (0x77C9ADD4CF0DEBF282212615F35C9B19)
Complete name                            : ReoNa - Shall We Dance [WEB-DL 1080p AAC 2.0 x264-SEKAI].mkv
Format                                   : Matroska
Format version                           : Version 4
File size                                : 362 MiB
Duration                                 : 4 min 59 s
Overall bit rate                         : 10.1 Mb/s
Frame rate                               : 29.970 FPS
Title                                    : ReoNa - Shall We Dance? [WEB-DL 1080p AAC 2.0 x264-SEKAI]
Encoded date                             : 2026-04-26 16:16:39 UTC
Writing application                      : mkvmerge 98.0 ('Chonks') 64-bit
Writing library                          : libebml v1.4.5 + libmatroska v1.7.1
Website                                  : https://sekai-archivist.blogspot.com/

Video
ID                                       : 1
Format                                   : AVC
Format/Info                              : Advanced Video Codec
Format profile                           : High@L4
Format settings                          : CABAC / 5 Ref Frames
Format settings, CABAC                   : Yes
Format settings, Reference frames        : 5 frames
Format settings, Slice count             : 8 slices per frame
Codec ID                                 : V_MPEG4/ISO/AVC
Duration                                 : 4 min 59 s
Bit rate                                 : 9 897 kb/s
Width                                    : 1 920 pixels
Height                                   : 836 pixels
Display aspect ratio                     : 2.25:1
Frame rate mode                          : Constant
Frame rate                               : 29.970 (30000/1001) FPS
Color space                              : YUV
Chroma subsampling                       : 4:2:0 (Type 2)
Bit depth                                : 8 bits
Scan type                                : Progressive
Bits/(Pixel*Frame)                       : 0.206
Stream size                              : 353 MiB (98%)
Language                                 : Japanese
Default                                  : Yes
Forced                                   : No
Color range                              : Limited
Color primaries                          : BT.709
Transfer characteristics                 : BT.709
Matrix coefficients                      : BT.709

Audio
ID                                       : 2
Format                                   : AAC LC
Format/Info                              : Advanced Audio Codec Low Complexity
Codec ID                                 : A_AAC-2
Duration                                 : 4 min 59 s
Bit rate                                 : 248 kb/s
Channel(s)                               : 2 channels
Channel layout                           : L R
Sampling rate                            : 48.0 kHz
Frame rate                               : 46.875 FPS (1024 SPF)
Compression mode                         : Lossy
Stream size                              : 8.84 MiB (2%)
Language                                 : Japanese
Default                                  : Yes
Forced                                   : No


